<svg width="19" height="25" viewBox="0 0 19 25" fill="none" xmlns="http://www.w3.org/2000/svg">
<path d="M15.1883 12.1188C16.5287 11.4489 17.3818 10.2579 17.1837 8.27805C16.9247 5.56872 14.6479 4.66065 11.6319 4.40763V0.65625H9.28606V4.30341C8.67674 4.30341 8.05219 4.31829 7.42769 4.33318V0.65625H5.08185V4.40763C4.21937 4.43309 3.21487 4.42067 0.375 4.40763V6.84896C2.22709 6.81693 3.19887 6.70062 3.42152 7.8612V18.1328C3.28013 19.0536 2.52607 18.921 0.847184 18.892L0.375048 21.6162C4.65221 21.6162 5.0819 21.6311 5.0819 21.6311V24.8438H7.42773V21.6758C8.06746 21.6906 8.69201 21.6906 9.28611 21.6906V24.8438H11.6319V21.6311C15.5619 21.4227 18.1891 20.4551 18.5395 16.8377C18.8136 13.9349 17.4122 12.6397 15.1883 12.1188ZM7.47342 7.0127C8.79865 7.0127 12.9419 6.61082 12.9419 9.30522C12.9419 11.8806 8.7987 11.5828 7.47342 11.5828V7.0127ZM7.47342 18.9069V13.8753C9.05761 13.8753 13.9088 13.4436 13.9088 16.3912C13.9087 19.2344 9.05761 18.9069 7.47342 18.9069Z" fill="#FFB849"/>
</svg>
