<svg width="28" height="25" viewBox="0 0 28 25" fill="none" xmlns="http://www.w3.org/2000/svg">
<path d="M25 5.78125V3.09375C25 1.61159 23.7666 0.40625 22.25 0.40625H4.375C2.10075 0.40625 0.25 2.21494 0.25 4.4375V20.5625C0.25 23.5201 2.71675 24.5938 4.375 24.5938H25C26.5166 24.5938 27.75 23.3884 27.75 21.9062V8.46875C27.75 6.98659 26.5166 5.78125 25 5.78125ZM22.25 17.875H19.5V12.5H22.25V17.875ZM4.375 5.78125C4.02097 5.76577 3.68668 5.61744 3.44175 5.36713C3.19683 5.11682 3.06013 4.78383 3.06013 4.4375C3.06013 4.09117 3.19683 3.75818 3.44175 3.50787C3.68668 3.25756 4.02097 3.10923 4.375 3.09375H22.25V5.78125H4.375Z" fill="#3380FF"/>
</svg>
